{"asset":{"version":"2.0","generator":"gwm-decimator2"},"scene":0,"scenes":[{"nodes":[0]}],"nodes":[{"mesh":0}],"meshes":[{"primitives":[{"attributes":{"POSITION":0,"NORMAL":1,"TEXCOORD_0":2},"indices":3,"material":0,"mode":4},{"attributes":{"POSITION":4,"NORMAL":5,"TEXCOORD_0":6},"indices":7,"material":1,"mode":4},{"attributes":{"POSITION":8,"NORMAL":9,"TEXCOORD_0":10},"indices":11,"material":2,"mode":4},{"attributes":{"POSITION":12,"NORMAL":13,"TEXCOORD_0":14},"indices":15,"material":3,"mode":4},{"attributes":{"POSITION":16,"NORMAL":17,"TEXCOORD_0":18},"indices":19,"material":4,"mode":4}]}],"materials":[{"doubleSided":true,"extensions":{"KHR_materials_specular":{"specularColorFactor":[1.0,1.0,1.0],"specularFactor":0.44952517950530896}},"name":"Bark","pbrMetallicRoughness":{"baseColorTexture":{"index":0},"metallicFactor":0.0}},{"alphaMode":"MASK","doubleSided":true,"name":"Grass_C","pbrMetallicRoughness":{"baseColorTexture":{"index":1},"metallicFactor":0.0,"roughnessFactor":0.695455}},{"doubleSided":true,"name":"material","pbrMetallicRoughness":{"baseColorTexture":{"index":2},"metallicFactor":0.0,"roughnessFactor":0.75}},{"alphaMode":"BLEND","doubleSided":true,"extensions":{"KHR_materials_specular":{"specularColorFactor":[1.0,1.0,1.0],"specularFactor":0.2}},"name":"material_3","pbrMetallicRoughness":{"baseColorFactor":[1.0,0.9374879730932179,0.8928293248917687,0.6],"roughnessFactor":0.0}},{"alphaMode":"MASK","doubleSided":true,"extensions":{"KHR_materials_specular":{"specularColorFactor":[1.0,1.0,1.0],"specularFactor":0.07771452255854494}},"name":"Leaves","pbrMetallicRoughness":{"baseColorTexture":{"index":3},"metallicFactor":0.0,"roughnessFactor":0.5}}],"textures":[{"sampler":0,"source":0},{"sampler":0,"source":1},{"sampler":0,"source":2},{"sampler":0,"source":3}],"images":[{"uri":"textures/Bark_baseColor.jpeg"},{"uri":"textures/Grass_C_baseColor.png"},{"uri":"textures/material_baseColor.png"},{"uri":"textures/Leaves_baseColor.png"}],"samplers":[{"magFilter":9729,"minFilter":9987,"wrapS":10497,"wrapT":10497}],"buffers":[{"uri":"scene_small.bin","byteLength":4945888}],"bufferViews":[{"buffer":0,"byteOffset":0,"byteLength":129924,"target":34962},{"buffer":0,"byteOffset":129924,"byteLength":129924,"target":34962},{"buffer":0,"byteOffset":259848,"byteLength":86616,"target":34962},{"buffer":0,"byteOffset":346464,"byteLength":148788,"target":34963},{"buffer":0,"byteOffset":495252,"byteLength":1094808,"target":34962},{"buffer":0,"byteOffset":1590060,"byteLength":1094808,"target":34962},{"buffer":0,"byteOffset":2684868,"byteLength":729872,"target":34962},{"buffer":0,"byteOffset":3414740,"byteLength":622908,"target":34963},{"buffer":0,"byteOffset":4037648,"byteLength":8340,"target":34962},{"buffer":0,"byteOffset":4045988,"byteLength":8340,"target":34962},{"buffer":0,"byteOffset":4054328,"byteLength":5560,"target":34962},{"buffer":0,"byteOffset":4059888,"byteLength":16128,"target":34963},{"buffer":0,"byteOffset":4076016,"byteLength":1128,"target":34962},{"buffer":0,"byteOffset":4077144,"byteLength":1128,"target":34962},{"buffer":0,"byteOffset":4078272,"byteLength":752,"target":34962},{"buffer":0,"byteOffset":4079024,"byteLength":384,"target":34963},{"buffer":0,"byteOffset":4079408,"byteLength":273936,"target":34962},{"buffer":0,"byteOffset":4353344,"byteLength":273936,"target":34962},{"buffer":0,"byteOffset":4627280,"byteLength":182624,"target":34962},{"buffer":0,"byteOffset":4809904,"byteLength":135984,"target":34963}],"accessors":[{"bufferView":0,"componentType":5126,"count":10827,"type":"VEC3","min":[-26.68682289123535,-1.3165596723556519,-26.376270294189453],"max":[57.497562408447266,15.462631225585938,18.007431030273438]},{"bufferView":1,"componentType":5126,"count":10827,"type":"VEC3"},{"bufferView":2,"componentType":5126,"count":10827,"type":"VEC2"},{"bufferView":3,"componentType":5125,"count":37197,"type":"SCALAR"},{"bufferView":4,"componentType":5126,"count":91234,"type":"VEC3","min":[-21.23064422607422,-2.1562395095825195,-22.430919647216797],"max":[46.698001861572266,1.4475971460342407,23.923362731933594]},{"bufferView":5,"componentType":5126,"count":91234,"type":"VEC3"},{"bufferView":6,"componentType":5126,"count":91234,"type":"VEC2"},{"bufferView":7,"componentType":5125,"count":155727,"type":"SCALAR"},{"bufferView":8,"componentType":5126,"count":695,"type":"VEC3","min":[-25.65994644165039,-3.946812152862549,-26.075624465942383],"max":[25.536684036254883,0.7347337007522583,25.536684036254883]},{"bufferView":9,"componentType":5126,"count":695,"type":"VEC3"},{"bufferView":10,"componentType":5126,"count":695,"type":"VEC2"},{"bufferView":11,"componentType":5125,"count":4032,"type":"SCALAR"},{"bufferView":12,"componentType":5126,"count":94,"type":"VEC3","min":[-18.85601806640625,-1.5450791120529175,-18.856019973754883],"max":[18.856019973754883,-1.5450791120529175,18.856016159057617]},{"bufferView":13,"componentType":5126,"count":94,"type":"VEC3"},{"bufferView":14,"componentType":5126,"count":94,"type":"VEC2"},{"bufferView":15,"componentType":5125,"count":96,"type":"SCALAR"},{"bufferView":16,"componentType":5126,"count":22828,"type":"VEC3","min":[-28.78878402709961,-1.403770923614502,-28.394765853881836],"max":[58.43533706665039,18.962432861328125,21.197593688964844]},{"bufferView":17,"componentType":5126,"count":22828,"type":"VEC3"},{"bufferView":18,"componentType":5126,"count":22828,"type":"VEC2"},{"bufferView":19,"componentType":5125,"count":33996,"type":"SCALAR"}]}