{"asset":{"version":"2.0","generator":"gwm-compactor"},"scene":0,"scenes":[{"nodes":[0]}],"nodes":[{"mesh":0,"name":"merged"}],"meshes":[{"primitives":[{"attributes":{"POSITION":0,"NORMAL":1,"TEXCOORD_0":2},"indices":3,"material":0,"mode":4},{"attributes":{"POSITION":4,"NORMAL":5,"TEXCOORD_0":6},"indices":7,"material":1,"mode":4},{"attributes":{"POSITION":8,"NORMAL":9,"TEXCOORD_0":10},"indices":11,"material":2,"mode":4},{"attributes":{"POSITION":12,"NORMAL":13,"TEXCOORD_0":14},"indices":15,"material":3,"mode":4},{"attributes":{"POSITION":16,"NORMAL":17,"TEXCOORD_0":18},"indices":19,"material":4,"mode":4}]}],"materials":[{"doubleSided":true,"extensions":{"KHR_materials_specular":{"specularColorFactor":[1.0,1.0,1.0],"specularFactor":0.44952517950530896}},"name":"Bark","pbrMetallicRoughness":{"baseColorTexture":{"index":0},"metallicFactor":0.0}},{"alphaMode":"MASK","doubleSided":true,"name":"Grass_C","pbrMetallicRoughness":{"baseColorTexture":{"index":1},"metallicFactor":0.0,"roughnessFactor":0.695455}},{"doubleSided":true,"name":"material","pbrMetallicRoughness":{"baseColorTexture":{"index":2},"metallicFactor":0.0,"roughnessFactor":0.75}},{"alphaMode":"BLEND","doubleSided":true,"extensions":{"KHR_materials_specular":{"specularColorFactor":[1.0,1.0,1.0],"specularFactor":0.2}},"name":"material_3","pbrMetallicRoughness":{"baseColorFactor":[1.0,0.9374879730932179,0.8928293248917687,0.6],"roughnessFactor":0.0}},{"alphaMode":"MASK","doubleSided":true,"extensions":{"KHR_materials_specular":{"specularColorFactor":[1.0,1.0,1.0],"specularFactor":0.07771452255854494}},"name":"Leaves","pbrMetallicRoughness":{"baseColorTexture":{"index":3},"metallicFactor":0.0,"roughnessFactor":0.5}}],"textures":[{"sampler":0,"source":0},{"sampler":0,"source":1},{"sampler":0,"source":2},{"sampler":0,"source":3}],"images":[{"uri":"textures/Bark_baseColor.jpeg"},{"uri":"textures/Grass_C_baseColor.png"},{"uri":"textures/material_baseColor.png"},{"uri":"textures/Leaves_baseColor.png"}],"samplers":[{"magFilter":9729,"minFilter":9987,"wrapS":10497,"wrapT":10497}],"buffers":[{"uri":"scene_merged.bin","byteLength":15180752}],"bufferViews":[{"buffer":0,"byteOffset":0,"byteLength":414180,"target":34962},{"buffer":0,"byteOffset":414180,"byteLength":414180,"target":34962},{"buffer":0,"byteOffset":828360,"byteLength":276120,"target":34962},{"buffer":0,"byteOffset":1104480,"byteLength":496008,"target":34963},{"buffer":0,"byteOffset":1600488,"byteLength":3188640,"target":34962},{"buffer":0,"byteOffset":4789128,"byteLength":3188640,"target":34962},{"buffer":0,"byteOffset":7977768,"byteLength":2125760,"target":34962},{"buffer":0,"byteOffset":10103528,"byteLength":2076360,"target":34963},{"buffer":0,"byteOffset":12179888,"byteLength":27276,"target":34962},{"buffer":0,"byteOffset":12207164,"byteLength":27276,"target":34962},{"buffer":0,"byteOffset":12234440,"byteLength":18184,"target":34962},{"buffer":0,"byteOffset":12252624,"byteLength":53760,"target":34963},{"buffer":0,"byteOffset":12306384,"byteLength":1128,"target":34962},{"buffer":0,"byteOffset":12307512,"byteLength":1128,"target":34962},{"buffer":0,"byteOffset":12308640,"byteLength":752,"target":34962},{"buffer":0,"byteOffset":12309392,"byteLength":384,"target":34963},{"buffer":0,"byteOffset":12309776,"byteLength":906624,"target":34962},{"buffer":0,"byteOffset":13216400,"byteLength":906624,"target":34962},{"buffer":0,"byteOffset":14123024,"byteLength":604416,"target":34962},{"buffer":0,"byteOffset":14727440,"byteLength":453312,"target":34963}],"accessors":[{"bufferView":0,"componentType":5126,"count":34515,"type":"VEC3","min":[-26.841567993164062,-1.7701969146728516,-27.1395206451416],"max":[57.88094711303711,17.324485778808594,18.934728622436523]},{"bufferView":1,"componentType":5126,"count":34515,"type":"VEC3"},{"bufferView":2,"componentType":5126,"count":34515,"type":"VEC2"},{"bufferView":3,"componentType":5125,"count":124002,"type":"SCALAR"},{"bufferView":4,"componentType":5126,"count":265720,"type":"VEC3","min":[-21.419286727905273,-2.1562395095825195,-22.528316497802734],"max":[46.698001861572266,1.4475971460342407,24.029218673706055]},{"bufferView":5,"componentType":5126,"count":265720,"type":"VEC3"},{"bufferView":6,"componentType":5126,"count":265720,"type":"VEC2"},{"bufferView":7,"componentType":5125,"count":519090,"type":"SCALAR"},{"bufferView":8,"componentType":5126,"count":2273,"type":"VEC3","min":[-25.65994644165039,-3.9464223384857178,-26.075624465942383],"max":[25.65994644165039,0.7347337007522583,25.65994644165039]},{"bufferView":9,"componentType":5126,"count":2273,"type":"VEC3"},{"bufferView":10,"componentType":5126,"count":2273,"type":"VEC2"},{"bufferView":11,"componentType":5125,"count":13440,"type":"SCALAR"},{"bufferView":12,"componentType":5126,"count":94,"type":"VEC3","min":[-18.85601806640625,-1.5450791120529175,-18.856019973754883],"max":[18.856019973754883,-1.5450791120529175,18.856016159057617]},{"bufferView":13,"componentType":5126,"count":94,"type":"VEC3"},{"bufferView":14,"componentType":5126,"count":94,"type":"VEC2"},{"bufferView":15,"componentType":5125,"count":96,"type":"SCALAR"},{"bufferView":16,"componentType":5126,"count":75552,"type":"VEC3","min":[-29.405746459960938,-1.6806613206863403,-28.610448837280273],"max":[58.552940368652344,18.962432861328125,21.608688354492188]},{"bufferView":17,"componentType":5126,"count":75552,"type":"VEC3"},{"bufferView":18,"componentType":5126,"count":75552,"type":"VEC2"},{"bufferView":19,"componentType":5125,"count":113328,"type":"SCALAR"}]}