{"asset":{"version":"2.0","generator":"gwm-compactor"},"scene":0,"scenes":[{"nodes":[0]}],"nodes":[{"mesh":0,"name":"merged"}],"meshes":[{"primitives":[{"attributes":{"POSITION":0,"NORMAL":1,"TEXCOORD_0":2},"indices":3,"material":0,"mode":4},{"attributes":{"POSITION":4,"NORMAL":5,"TEXCOORD_0":6},"indices":7,"material":1,"mode":4},{"attributes":{"POSITION":8,"NORMAL":9,"TEXCOORD_0":10},"indices":11,"material":2,"mode":4},{"attributes":{"POSITION":12,"NORMAL":13,"TEXCOORD_0":14},"indices":15,"material":3,"mode":4},{"attributes":{"POSITION":16,"NORMAL":17,"TEXCOORD_0":18},"indices":19,"material":4,"mode":4},{"attributes":{"POSITION":20,"NORMAL":21,"TEXCOORD_0":22},"indices":23,"material":5,"mode":4},{"attributes":{"POSITION":24,"NORMAL":25,"TEXCOORD_0":26},"indices":27,"material":6,"mode":4},{"attributes":{"POSITION":28,"NORMAL":29,"TEXCOORD_0":30},"indices":31,"material":7,"mode":4},{"attributes":{"POSITION":32,"NORMAL":33,"TEXCOORD_0":34},"indices":35,"material":8,"mode":4},{"attributes":{"POSITION":36,"NORMAL":37,"TEXCOORD_0":38},"indices":39,"material":9,"mode":4}]}],"materials":[{"alphaCutoff":0.5705592449320259,"alphaMode":"MASK","doubleSided":true,"name":"05ade0e713892be558511d706fa6c547-no-bg-preview_carve.photos","pbrMetallicRoughness":{"baseColorTexture":{"index":0},"metallicFactor":0.0,"roughnessFactor":0.8211145618000169}},{"alphaCutoff":0.6920194393897973,"alphaMode":"MASK","doubleSided":true,"name":"47_20260709234345","pbrMetallicRoughness":{"baseColorTexture":{"index":1},"metallicFactor":0.0,"roughnessFactor":0.8211145618000169}},{"alphaCutoff":0.47339108936580887,"alphaMode":"MASK","doubleSided":true,"name":"3f84aea6648aa6cc5af5f07ee43c6056-no-bg-preview_carve.photos","pbrMetallicRoughness":{"baseColorTexture":{"index":2},"metallicFactor":0.0,"roughnessFactor":0.8211145618000169}},{"doubleSided":true,"name":"Material.003","pbrMetallicRoughness":{"baseColorTexture":{"index":3},"metallicFactor":0.0,"roughnessFactor":0.8211145618000169}},{"alphaCutoff":0.6920194393897973,"alphaMode":"MASK","doubleSided":true,"name":"5abdab9bf64818adacd4984d5925e5ca_1-no-bg-preview_carve.photos","pbrMetallicRoughness":{"baseColorTexture":{"index":4},"metallicFactor":0.0,"roughnessFactor":0.8211145618000169}},{"alphaCutoff":0.8742097310764542,"alphaMode":"MASK","doubleSided":true,"name":"material","pbrMetallicRoughness":{"baseColorTexture":{"index":5},"metallicFactor":0.0,"roughnessFactor":0.8211145618000169}},{"alphaCutoff":0.27298176851048617,"alphaMode":"MASK","doubleSided":true,"name":"16dde607b055e65db6246963d6854987-no-bg-preview_carve.photos","pbrMetallicRoughness":{"baseColorTexture":{"index":6},"metallicFactor":0.0,"roughnessFactor":0.8211145618000169}},{"doubleSided":true,"name":"a37081a7611992c6f6d9dc1786dbc08d","pbrMetallicRoughness":{"baseColorTexture":{"index":7},"metallicFactor":0.0,"roughnessFactor":0.9053427234704061}},{"alphaCutoff":0.1818866226671577,"alphaMode":"MASK","doubleSided":true,"name":"cc24eba76e0e306bc19df7b7a9208504-no-bg-preview_carve.photos","pbrMetallicRoughness":{"baseColorTexture":{"index":8},"metallicFactor":0.0,"roughnessFactor":0.8211145618000169}},{"alphaCutoff":0.14544856432982628,"alphaMode":"MASK","doubleSided":true,"name":"45_20260708124111","pbrMetallicRoughness":{"baseColorTexture":{"index":9},"metallicFactor":0.0,"roughnessFactor":0.8211145618000169}}],"textures":[{"sampler":0,"source":0},{"sampler":0,"source":1},{"sampler":0,"source":2},{"sampler":1,"source":3},{"sampler":0,"source":4},{"sampler":1,"source":5},{"sampler":0,"source":6},{"sampler":0,"source":7},{"sampler":0,"source":8},{"sampler":0,"source":9}],"images":[{"uri":"textures/05ade0e713892be558511d706fa6c547-no-bg-preview_carve.photos_baseColor.png"},{"uri":"textures/47_20260709234345_baseColor.png"},{"uri":"textures/3f84aea6648aa6cc5af5f07ee43c6056-no-bg-preview_carve.photos_baseColor.png"},{"uri":"textures/Material.003_baseColor.jpeg"},{"uri":"textures/5abdab9bf64818adacd4984d5925e5ca_1-no-bg-preview_carve.photos_baseColor.png"},{"uri":"textures/material_baseColor.png"},{"uri":"textures/16dde607b055e65db6246963d6854987-no-bg-preview_carve.photos_baseColor.png"},{"uri":"textures/a37081a7611992c6f6d9dc1786dbc08d_baseColor.jpeg"},{"uri":"textures/cc24eba76e0e306bc19df7b7a9208504-no-bg-preview_carve.photos_baseColor.png"},{"uri":"textures/45_20260708124111_baseColor.png"}],"samplers":[{"magFilter":9729,"minFilter":9987,"wrapS":33071,"wrapT":33071},{"magFilter":9729,"minFilter":9987,"wrapS":10497,"wrapT":10497}],"buffers":[{"uri":"scene_merged.bin","byteLength":1149476}],"bufferViews":[{"buffer":0,"byteOffset":0,"byteLength":768,"target":34962},{"buffer":0,"byteOffset":768,"byteLength":768,"target":34962},{"buffer":0,"byteOffset":1536,"byteLength":512,"target":34962},{"buffer":0,"byteOffset":2048,"byteLength":384,"target":34963},{"buffer":0,"byteOffset":2432,"byteLength":6144,"target":34962},{"buffer":0,"byteOffset":8576,"byteLength":6144,"target":34962},{"buffer":0,"byteOffset":14720,"byteLength":4096,"target":34962},{"buffer":0,"byteOffset":18816,"byteLength":3072,"target":34963},{"buffer":0,"byteOffset":21888,"byteLength":156096,"target":34962},{"buffer":0,"byteOffset":177984,"byteLength":156096,"target":34962},{"buffer":0,"byteOffset":334080,"byteLength":104064,"target":34962},{"buffer":0,"byteOffset":438144,"byteLength":78048,"target":34963},{"buffer":0,"byteOffset":516192,"byteLength":9744,"target":34962},{"buffer":0,"byteOffset":525936,"byteLength":9744,"target":34962},{"buffer":0,"byteOffset":535680,"byteLength":6496,"target":34962},{"buffer":0,"byteOffset":542176,"byteLength":8736,"target":34963},{"buffer":0,"byteOffset":550912,"byteLength":1344,"target":34962},{"buffer":0,"byteOffset":552256,"byteLength":1344,"target":34962},{"buffer":0,"byteOffset":553600,"byteLength":896,"target":34962},{"buffer":0,"byteOffset":554496,"byteLength":672,"target":34963},{"buffer":0,"byteOffset":555168,"byteLength":7560,"target":34962},{"buffer":0,"byteOffset":562728,"byteLength":7560,"target":34962},{"buffer":0,"byteOffset":570288,"byteLength":5040,"target":34962},{"buffer":0,"byteOffset":575328,"byteLength":6720,"target":34963},{"buffer":0,"byteOffset":582048,"byteLength":3360,"target":34962},{"buffer":0,"byteOffset":585408,"byteLength":3360,"target":34962},{"buffer":0,"byteOffset":588768,"byteLength":2240,"target":34962},{"buffer":0,"byteOffset":591008,"byteLength":1680,"target":34963},{"buffer":0,"byteOffset":592688,"byteLength":41088,"target":34962},{"buffer":0,"byteOffset":633776,"byteLength":41088,"target":34962},{"buffer":0,"byteOffset":674864,"byteLength":27392,"target":34962},{"buffer":0,"byteOffset":702256,"byteLength":79176,"target":34963},{"buffer":0,"byteOffset":781432,"byteLength":9696,"target":34962},{"buffer":0,"byteOffset":791128,"byteLength":9696,"target":34962},{"buffer":0,"byteOffset":800824,"byteLength":6464,"target":34962},{"buffer":0,"byteOffset":807288,"byteLength":4848,"target":34963},{"buffer":0,"byteOffset":812136,"byteLength":107868,"target":34962},{"buffer":0,"byteOffset":920004,"byteLength":107868,"target":34962},{"buffer":0,"byteOffset":1027872,"byteLength":71912,"target":34962},{"buffer":0,"byteOffset":1099784,"byteLength":49692,"target":34963}],"accessors":[{"bufferView":0,"componentType":5126,"count":64,"type":"VEC3","min":[-16.70315170288086,-0.5897725224494934,-2.2190122604370117],"max":[11.337955474853516,12.449378967285156,11.539831161499023]},{"bufferView":1,"componentType":5126,"count":64,"type":"VEC3"},{"bufferView":2,"componentType":5126,"count":64,"type":"VEC2"},{"bufferView":3,"componentType":5125,"count":96,"type":"SCALAR"},{"bufferView":4,"componentType":5126,"count":512,"type":"VEC3","min":[-16.549488067626953,3.1926136016845703,-1.651885747909546],"max":[11.120667457580566,11.37376594543457,11.294771194458008]},{"bufferView":5,"componentType":5126,"count":512,"type":"VEC3"},{"bufferView":6,"componentType":5126,"count":512,"type":"VEC2"},{"bufferView":7,"componentType":5125,"count":768,"type":"SCALAR"},{"bufferView":8,"componentType":5126,"count":13008,"type":"VEC3","min":[-16.25865936279297,-0.48464563488960266,-0.42954081296920776],"max":[16.909086227416992,6.575292110443115,20.961496353149414]},{"bufferView":9,"componentType":5126,"count":13008,"type":"VEC3"},{"bufferView":10,"componentType":5126,"count":13008,"type":"VEC2"},{"bufferView":11,"componentType":5125,"count":19512,"type":"SCALAR"},{"bufferView":12,"componentType":5126,"count":812,"type":"VEC3","min":[-13.845433235168457,-0.11156991124153137,0.01213839277625084],"max":[12.336274147033691,10.54978084564209,8.799188613891602]},{"bufferView":13,"componentType":5126,"count":812,"type":"VEC3"},{"bufferView":14,"componentType":5126,"count":812,"type":"VEC2"},{"bufferView":15,"componentType":5125,"count":2184,"type":"SCALAR"},{"bufferView":16,"componentType":5126,"count":112,"type":"VEC3","min":[-14.887206077575684,0.17256233096122742,-1.0398820638656616],"max":[13.377958297729492,11.15302848815918,9.837398529052734]},{"bufferView":17,"componentType":5126,"count":112,"type":"VEC3"},{"bufferView":18,"componentType":5126,"count":112,"type":"VEC2"},{"bufferView":19,"componentType":5125,"count":168,"type":"SCALAR"},{"bufferView":20,"componentType":5126,"count":630,"type":"VEC3","min":[-14.834723472595215,2.4227073192596436,-0.987399160861969],"max":[13.325475692749023,10.120118141174316,9.784915924072266]},{"bufferView":21,"componentType":5126,"count":630,"type":"VEC3"},{"bufferView":22,"componentType":5126,"count":630,"type":"VEC2"},{"bufferView":23,"componentType":5125,"count":1680,"type":"SCALAR"},{"bufferView":24,"componentType":5126,"count":280,"type":"VEC3","min":[-14.080120086669922,0.4051724672317505,-0.10803721100091934],"max":[12.587970733642578,6.043259620666504,8.86231803894043]},{"bufferView":25,"componentType":5126,"count":280,"type":"VEC3"},{"bufferView":26,"componentType":5126,"count":280,"type":"VEC2"},{"bufferView":27,"componentType":5125,"count":420,"type":"SCALAR"},{"bufferView":28,"componentType":5126,"count":3424,"type":"VEC3","min":[-16.74867820739746,-0.36508291959762573,-2.439534902572632],"max":[13.729494094848633,5.943981647491455,20.16154670715332]},{"bufferView":29,"componentType":5126,"count":3424,"type":"VEC3"},{"bufferView":30,"componentType":5126,"count":3424,"type":"VEC2"},{"bufferView":31,"componentType":5125,"count":19794,"type":"SCALAR"},{"bufferView":32,"componentType":5126,"count":808,"type":"VEC3","min":[-15.396936416625977,-0.023384125903248787,5.243607521057129],"max":[15.439452171325684,5.480895042419434,19.134056091308594]},{"bufferView":33,"componentType":5126,"count":808,"type":"VEC3"},{"bufferView":34,"componentType":5126,"count":808,"type":"VEC2"},{"bufferView":35,"componentType":5125,"count":1212,"type":"SCALAR"},{"bufferView":36,"componentType":5126,"count":8989,"type":"VEC3","min":[-15.587930679321289,0.4411315619945526,5.124264717102051],"max":[15.643839836120605,5.095266342163086,19.336950302124023]},{"bufferView":37,"componentType":5126,"count":8989,"type":"VEC3"},{"bufferView":38,"componentType":5126,"count":8989,"type":"VEC2"},{"bufferView":39,"componentType":5125,"count":12423,"type":"SCALAR"}]}