{"asset":{"version":"2.0","generator":"gwm-decimator2"},"scene":0,"scenes":[{"nodes":[0]}],"nodes":[{"mesh":0}],"meshes":[{"primitives":[{"attributes":{"POSITION":0,"NORMAL":1,"TEXCOORD_0":2},"indices":3,"material":0,"mode":4}]}],"materials":[{"doubleSided":true,"name":"material_0","occlusionTexture":{"index":1},"pbrMetallicRoughness":{"baseColorTexture":{"index":0},"metallicFactor":0.0}}],"textures":[{"sampler":0,"source":0},{"sampler":0,"source":1}],"images":[{"uri":"textures/material_0_baseColor.jpeg"},{"uri":"textures/material_0_metallicRoughness.png"}],"samplers":[{"magFilter":9729,"minFilter":9987,"wrapS":10497,"wrapT":10497}],"buffers":[{"uri":"scene_small.bin","byteLength":1283032}],"bufferViews":[{"buffer":0,"byteOffset":0,"byteLength":292416,"target":34962},{"buffer":0,"byteOffset":292416,"byteLength":292416,"target":34962},{"buffer":0,"byteOffset":584832,"byteLength":194944,"target":34962},{"buffer":0,"byteOffset":779776,"byteLength":503256,"target":34963}],"accessors":[{"bufferView":0,"componentType":5126,"count":24368,"type":"VEC3","min":[0.0,0.042979806661605835,-1.0],"max":[1.0,0.21647652983665466,3.442892799929437e-17]},{"bufferView":1,"componentType":5126,"count":24368,"type":"VEC3"},{"bufferView":2,"componentType":5126,"count":24368,"type":"VEC2"},{"bufferView":3,"componentType":5125,"count":125814,"type":"SCALAR"}]}