{"asset":{"version":"2.0","generator":"gwm-compactor"},"scene":0,"scenes":[{"nodes":[0]}],"nodes":[{"mesh":0,"name":"merged"}],"meshes":[{"primitives":[{"attributes":{"POSITION":0,"NORMAL":1,"TEXCOORD_0":2},"indices":3,"material":0,"mode":4},{"attributes":{"POSITION":4,"NORMAL":5,"TEXCOORD_0":6},"indices":7,"material":1,"mode":4}]}],"materials":[{"doubleSided":true,"name":"grass","pbrMetallicRoughness":{"baseColorTexture":{"index":0},"metallicFactor":0.0,"roughnessFactor":0.6}},{"doubleSided":true,"name":"Soil","pbrMetallicRoughness":{"baseColorTexture":{"index":1},"metallicFactor":0.0,"roughnessFactor":0.6}}],"textures":[{"sampler":0,"source":0},{"sampler":0,"source":1}],"images":[{"uri":"textures/grass_baseColor.png"},{"uri":"textures/Soil_baseColor.jpeg"}],"samplers":[{"magFilter":9729,"minFilter":9987,"wrapS":10497,"wrapT":10497}],"buffers":[{"uri":"scene_merged.bin","byteLength":5738000}],"bufferViews":[{"buffer":0,"byteOffset":0,"byteLength":1811712,"target":34962},{"buffer":0,"byteOffset":1811712,"byteLength":1811712,"target":34962},{"buffer":0,"byteOffset":3623424,"byteLength":1207808,"target":34962},{"buffer":0,"byteOffset":4831232,"byteLength":905856,"target":34963},{"buffer":0,"byteOffset":5737088,"byteLength":288,"target":34962},{"buffer":0,"byteOffset":5737376,"byteLength":288,"target":34962},{"buffer":0,"byteOffset":5737664,"byteLength":192,"target":34962},{"buffer":0,"byteOffset":5737856,"byteLength":144,"target":34963}],"accessors":[{"bufferView":0,"componentType":5126,"count":150976,"type":"VEC3","min":[-101.92035675048828,-0.06305499374866486,-101.86619567871094],"max":[102.16098022460938,12.732136726379395,101.73049926757812]},{"bufferView":1,"componentType":5126,"count":150976,"type":"VEC3"},{"bufferView":2,"componentType":5126,"count":150976,"type":"VEC2"},{"bufferView":3,"componentType":5125,"count":226464,"type":"SCALAR"},{"bufferView":4,"componentType":5126,"count":24,"type":"VEC3","min":[-100.0,-0.8361336588859558,-100.0],"max":[100.0,1.6292067812173627e-05,100.0]},{"bufferView":5,"componentType":5126,"count":24,"type":"VEC3"},{"bufferView":6,"componentType":5126,"count":24,"type":"VEC2"},{"bufferView":7,"componentType":5125,"count":36,"type":"SCALAR"}]}