{"asset":{"version":"2.0","generator":"gwm-decimator2"},"scene":0,"scenes":[{"nodes":[0]}],"nodes":[{"mesh":0}],"meshes":[{"primitives":[{"attributes":{"POSITION":0,"NORMAL":1,"TEXCOORD_0":2},"indices":3,"material":0,"mode":4},{"attributes":{"POSITION":4,"NORMAL":5,"TEXCOORD_0":6},"indices":7,"material":1,"mode":4}]}],"materials":[{"doubleSided":true,"name":"grass","pbrMetallicRoughness":{"baseColorTexture":{"index":0},"metallicFactor":0.0,"roughnessFactor":0.6}},{"doubleSided":true,"name":"Soil","pbrMetallicRoughness":{"baseColorTexture":{"index":1},"metallicFactor":0.0,"roughnessFactor":0.6}}],"textures":[{"sampler":0,"source":0},{"sampler":0,"source":1}],"images":[{"uri":"textures/grass_baseColor.png"},{"uri":"textures/Soil_baseColor.jpeg"}],"samplers":[{"magFilter":9729,"minFilter":9987,"wrapS":10497,"wrapT":10497}],"buffers":[{"uri":"scene_small.bin","byteLength":2300244}],"bufferViews":[{"buffer":0,"byteOffset":0,"byteLength":726372,"target":34962},{"buffer":0,"byteOffset":726372,"byteLength":726372,"target":34962},{"buffer":0,"byteOffset":1452744,"byteLength":484248,"target":34962},{"buffer":0,"byteOffset":1936992,"byteLength":362340,"target":34963},{"buffer":0,"byteOffset":2299332,"byteLength":288,"target":34962},{"buffer":0,"byteOffset":2299620,"byteLength":288,"target":34962},{"buffer":0,"byteOffset":2299908,"byteLength":192,"target":34962},{"buffer":0,"byteOffset":2300100,"byteLength":144,"target":34963}],"accessors":[{"bufferView":0,"componentType":5126,"count":60531,"type":"VEC3","min":[-101.7593994140625,-0.06304986774921417,-101.86619567871094],"max":[102.16098022460938,12.717110633850098,101.68587493896484]},{"bufferView":1,"componentType":5126,"count":60531,"type":"VEC3"},{"bufferView":2,"componentType":5126,"count":60531,"type":"VEC2"},{"bufferView":3,"componentType":5125,"count":90585,"type":"SCALAR"},{"bufferView":4,"componentType":5126,"count":24,"type":"VEC3","min":[-100.0,-0.8361336588859558,-100.0],"max":[100.0,1.6292067812173627e-05,100.0]},{"bufferView":5,"componentType":5126,"count":24,"type":"VEC3"},{"bufferView":6,"componentType":5126,"count":24,"type":"VEC2"},{"bufferView":7,"componentType":5125,"count":36,"type":"SCALAR"}]}