{"asset":{"version":"2.0","generator":"gwm-decimator"},"scene":0,"scenes":[{"nodes":[0]}],"nodes":[{"mesh":0}],"meshes":[{"primitives":[{"attributes":{"POSITION":0,"NORMAL":1,"TEXCOORD_0":2},"indices":3,"material":0,"mode":4}]}],"materials":[{"doubleSided":true,"name":"material_0","pbrMetallicRoughness":{"baseColorTexture":{"index":0}}}],"textures":[{"sampler":0,"source":0}],"images":[{"uri":"textures/material_0_baseColor.jpeg"}],"samplers":[{"magFilter":9729,"minFilter":9987,"wrapS":10497,"wrapT":10497}],"buffers":[{"uri":"scene_small.bin","byteLength":2965560}],"bufferViews":[{"buffer":0,"byteOffset":0,"byteLength":861156,"target":34962},{"buffer":0,"byteOffset":861156,"byteLength":861156,"target":34962},{"buffer":0,"byteOffset":1722312,"byteLength":574104,"target":34962},{"buffer":0,"byteOffset":2296416,"byteLength":669144,"target":34963}],"accessors":[{"bufferView":0,"componentType":5126,"count":71763,"type":"VEC3","min":[-0.7521141171455383,-1.0006159543991089,-0.8650811910629272],"max":[0.7515087127685547,0.9994298219680786,0.86482834815979]},{"bufferView":1,"componentType":5126,"count":71763,"type":"VEC3"},{"bufferView":2,"componentType":5126,"count":71763,"type":"VEC2"},{"bufferView":3,"componentType":5125,"count":167286,"type":"SCALAR"}]}